<svg width="57" height="55" viewBox="0 0 57 55" fill="none" xmlns="http://www.w3.org/2000/svg">
<path d="M41.6666 0.5C43.8985 0.499879 46.0461 1.32825 47.6699 2.81564C49.2937 4.30302 50.2711 6.33697 50.4021 8.50133L50.4166 9V37.3333H52.6041C54.4912 37.3333 56.0458 38.7273 56.2325 40.5123L56.25 40.875V45.8333C56.2501 48.0014 55.3974 50.0876 53.8662 51.6651C52.3351 53.2425 50.2413 54.192 48.0133 54.3192L47.5 54.3333H18.3333C16.1014 54.3335 13.9539 53.5051 12.3301 52.0177C10.7062 50.5303 9.72883 48.4964 9.5979 46.332L9.58331 45.8333V17.5H4.47915C3.57656 17.5004 2.70591 17.1755 2.03566 16.5883C1.36542 16.0011 0.943238 15.1932 0.850813 14.321L0.833313 13.9583V9C0.833189 6.8319 1.68593 4.74571 3.21706 3.16826C4.74819 1.59081 6.84196 0.641362 9.06998 0.514167L9.58331 0.5H41.6666ZM41.6666 6.16667H15.4166V45.8333C15.4166 46.5848 15.7239 47.3055 16.2709 47.8368C16.8179 48.3682 17.5598 48.6667 18.3333 48.6667C19.1069 48.6667 19.8487 48.3682 20.3957 47.8368C20.9427 47.3055 21.25 46.5848 21.25 45.8333V40.875C21.25 38.92 22.8833 37.3333 24.8958 37.3333H44.5833V9C44.5833 8.24855 44.276 7.52788 43.729 6.99653C43.1821 6.46518 42.4402 6.16667 41.6666 6.16667ZM50.4166 43H27.0833V45.8333C27.0833 46.825 26.9083 47.7798 26.5875 48.6667H47.5C48.2735 48.6667 49.0154 48.3682 49.5624 47.8368C50.1094 47.3055 50.4166 46.5848 50.4166 45.8333V43ZM30 26C30.7735 26 31.5154 26.2985 32.0624 26.8299C32.6094 27.3612 32.9166 28.0819 32.9166 28.8333C32.9166 29.5848 32.6094 30.3054 32.0624 30.8368C31.5154 31.3682 30.7735 31.6667 30 31.6667H24.1666C23.3931 31.6667 22.6512 31.3682 22.1043 30.8368C21.5573 30.3054 21.25 29.5848 21.25 28.8333C21.25 28.0819 21.5573 27.3612 22.1043 26.8299C22.6512 26.2985 23.3931 26 24.1666 26H30ZM35.8333 14.6667C36.6069 14.6667 37.3487 14.9652 37.8957 15.4965C38.4427 16.0279 38.75 16.7486 38.75 17.5C38.75 18.2514 38.4427 18.9721 37.8957 19.5035C37.3487 20.0348 36.6069 20.3333 35.8333 20.3333H24.1666C23.3931 20.3333 22.6512 20.0348 22.1043 19.5035C21.5573 18.9721 21.25 18.2514 21.25 17.5C21.25 16.7486 21.5573 16.0279 22.1043 15.4965C22.6512 14.9652 23.3931 14.6667 24.1666 14.6667H35.8333ZM9.58331 6.16667C8.86892 6.16676 8.17941 6.42154 7.64556 6.88269C7.11171 7.34384 6.77065 7.97929 6.68706 8.6685L6.66665 9V11.8333H9.58331V6.16667Z" fill="white"/>
</svg>