<svg width="79" height="72" viewBox="0 0 79 72" fill="none" xmlns="http://www.w3.org/2000/svg" style="transform: translateX(10px);">
<path d="M3 11C3 9.93913 3.41616 8.92172 4.15693 8.17157C4.8977 7.42143 5.90239 7 6.95 7C7.99761 7 9.0023 7.42143 9.74307 8.17157C10.4838 8.92172 10.9 9.93913 10.9 11H62.25C63.2976 11 64.3023 11.4214 65.0431 12.1716C65.7838 12.9217 66.2 13.9391 66.2 15C66.2 16.0609 65.7838 17.0783 65.0431 17.8284C64.3023 18.5786 63.2976 19 62.25 19H10.9V69C10.9 69.5304 10.6919 70.0391 10.3215 70.4142C9.95115 70.7893 9.4488 71 8.925 71H4.975C4.4512 71 3.94885 70.7893 3.57846 70.4142C3.20808 70.0391 3 69.5304 3 69V11ZM14.85 25C14.85 24.4696 15.0581 23.9609 15.4285 23.5858C15.7988 23.2107 16.3012 23 16.825 23H60.275C60.7988 23 61.3012 23.2107 61.6715 23.5858C62.0419 23.9609 62.25 24.4696 62.25 25V53C62.25 55.6522 61.2096 58.1957 59.3577 60.0711C57.5058 61.9464 54.994 63 52.375 63H24.725C22.106 63 19.5942 61.9464 17.7423 60.0711C15.8904 58.1957 14.85 55.6522 14.85 53V25ZM26.7 53C26.7 53.5304 26.9081 54.0391 27.2785 54.4142C27.6488 54.7893 28.1512 55 28.675 55H32.625C33.1488 55 33.6512 54.7893 34.0215 54.4142C34.3919 54.0391 34.6 53.5304 34.6 53V49C34.6 48.4696 34.8081 47.9609 35.1785 47.5858C35.5488 47.2107 36.0512 47 36.575 47H40.525C41.0488 47 41.5512 47.2107 41.9215 47.5858C42.2919 47.9609 42.5 48.4696 42.5 49V53C42.5 53.5304 42.7081 54.0391 43.0785 54.4142C43.4488 54.7893 43.9512 55 44.475 55H48.425C48.9488 55 49.4512 54.7893 49.8215 54.4142C50.1919 54.0391 50.4 53.5304 50.4 53V42.8C50.4002 42.2346 50.2819 41.6756 50.0532 41.1599C49.8244 40.6442 49.4903 40.1834 49.0728 39.808L39.8614 31.52C39.5 31.195 39.0334 31.0155 38.55 31.0155C38.0666 31.0155 37.6 31.195 37.2386 31.52L28.0272 39.8C27.6087 40.1763 27.274 40.6384 27.0452 41.1556C26.8164 41.6728 26.6987 42.2333 26.7 42.8V53Z" fill="white"/>
</svg>
