<svg width="46" height="46" viewBox="0 0 46 46" fill="none" xmlns="http://www.w3.org/2000/svg">
<rect x="1.5" y="1.5" width="43" height="43" rx="7.5" stroke="white" stroke-width="3"/>
<path d="M38.3334 36.4167V20.125C38.3334 19.8275 38.2641 19.534 38.131 19.2679C37.9979 19.0017 37.8047 18.7702 37.5667 18.5917L24.15 8.52921C23.8183 8.28038 23.4147 8.14587 23 8.14587C22.5853 8.14587 22.1818 8.28038 21.85 8.52921L8.43335 18.5917C8.19531 18.7702 8.0021 19.0017 7.86903 19.2679C7.73596 19.534 7.66669 19.8275 7.66669 20.125V36.4167C7.66669 36.925 7.86862 37.4126 8.22807 37.772C8.58751 38.1314 9.07502 38.3334 9.58335 38.3334H17.25C17.7584 38.3334 18.2459 38.1314 18.6053 37.772C18.9648 37.4126 19.1667 36.925 19.1667 36.4167V30.6667C19.1667 30.1584 19.3686 29.6709 19.7281 29.3114C20.0875 28.952 20.575 28.75 21.0834 28.75H24.9167C25.425 28.75 25.9125 28.952 26.272 29.3114C26.6314 29.6709 26.8334 30.1584 26.8334 30.6667V36.4167C26.8334 36.925 27.0353 37.4126 27.3947 37.772C27.7542 38.1314 28.2417 38.3334 28.75 38.3334H36.4167C36.925 38.3334 37.4125 38.1314 37.772 37.772C38.1314 37.4126 38.3334 36.925 38.3334 36.4167Z" fill="white" stroke="white" stroke-width="3" stroke-linecap="round" stroke-linejoin="round"/>
</svg>