<svg width="50" height="50" viewBox="0 0 50 50" fill="none" xmlns="http://www.w3.org/2000/svg">
<path d="M29.1666 43.75H20.8333L19.6854 38.5833C18.3192 38.0492 17.0416 37.3117 15.8958 36.3958L10.8458 37.9854L6.67914 30.7687L10.5791 27.1896C10.3609 25.7394 10.3609 24.2647 10.5791 22.8146L6.67914 19.2333L10.8458 12.0167L15.8958 13.6063C17.0422 12.6895 18.3205 11.9513 19.6875 11.4167L20.8333 6.25H29.1666L30.3146 11.4167C31.6807 11.9509 32.9583 12.6884 34.1041 13.6042L39.1541 12.0146L43.3208 19.2312L39.4208 22.8104C39.6392 24.2606 39.6392 25.7353 39.4208 27.1854L43.3208 30.7646L39.1541 37.9813L34.1041 36.3917C32.9586 37.309 31.681 38.0479 30.3146 38.5833L29.1666 43.75Z" stroke="white" stroke-width="3" stroke-linecap="round" stroke-linejoin="round"/>
<path d="M25 31.25C28.4518 31.25 31.25 28.4518 31.25 25C31.25 21.5482 28.4518 18.75 25 18.75C21.5482 18.75 18.75 21.5482 18.75 25C18.75 28.4518 21.5482 31.25 25 31.25Z" stroke="white" stroke-width="3"/>
</svg>