<svg width="51" height="54" viewBox="0 0 51 54" fill="none" xmlns="http://www.w3.org/2000/svg">
<g filter="url(#filter0_d_173_438)">
<path d="M14.5833 6.25H10.4167C9.3116 6.25 8.25179 6.68899 7.47039 7.47039C6.68899 8.25179 6.25 9.3116 6.25 10.4167V14.5833M6.25 35.4167V39.5833C6.25 40.6884 6.68899 41.7482 7.47039 42.5296C8.25179 43.311 9.3116 43.75 10.4167 43.75H14.5833M35.4167 43.75H39.5833C40.6884 43.75 41.7482 43.311 42.5296 42.5296C43.311 41.7482 43.75 40.6884 43.75 39.5833V35.4167M43.75 14.5833V10.4167C43.75 9.3116 43.311 8.25179 42.5296 7.47039C41.7482 6.68899 40.6884 6.25 39.5833 6.25H35.4167" stroke="white" stroke-width="4" stroke-linecap="round" stroke-linejoin="round"/>
<path d="M25 25C28.4518 25 31.25 22.2018 31.25 18.75C31.25 15.2982 28.4518 12.5 25 12.5C21.5482 12.5 18.75 15.2982 18.75 18.75C18.75 22.2018 21.5482 25 25 25Z" stroke="white" stroke-width="4" stroke-linecap="round" stroke-linejoin="round"/>
<path d="M35.4166 33.3333C35.4166 28.7292 30.7521 25 25 25C19.2479 25 14.5833 28.7292 14.5833 33.3333" stroke="white" stroke-width="4" stroke-linecap="round" stroke-linejoin="round"/>
</g>
<defs>
<filter id="filter0_d_173_438" x="-3" y="0" width="58" height="58" filterUnits="userSpaceOnUse" color-interpolation-filters="sRGB">
<feFlood flood-opacity="0" result="BackgroundImageFix"/>
<feColorMatrix in="SourceAlpha" type="matrix" values="0 0 0 0 0 0 0 0 0 0 0 0 0 0 0 0 0 0 127 0" result="hardAlpha"/>
<feOffset dy="4"/>
<feGaussianBlur stdDeviation="2"/>
<feComposite in2="hardAlpha" operator="out"/>
<feColorMatrix type="matrix" values="0 0 0 0 0 0 0 0 0 0 0 0 0 0 0 0 0 0 0.25 0"/>
<feBlend mode="normal" in2="BackgroundImageFix" result="effect1_dropShadow_173_438"/>
<feBlend mode="normal" in="SourceGraphic" in2="effect1_dropShadow_173_438" result="shape"/>
</filter>
</defs>
</svg>